<svg id="Calque_1" data-name="Calque 1" xmlns="http://www.w3.org/2000/svg" viewBox="0 0 800 500"><defs><style>.cls-1{stroke:#000;stroke-miterlimit:10;}.cls-2{font-size:102.05px;font-family:Righteous-Regular, Righteous;}.cls-3{font-size:20.68px;font-family:GloriaHallelujah, Gloria Hallelujah;}</style></defs><title>Plan de travail 4</title><path class="cls-1" d="M165.65,249.05h12c2.37,2.67,18.93,20.62,45.84,20.17,25.74-.43,41.34-17.36,43.84-20.17H278.9a70.76,70.76,0,0,1-60,29.51,68.9,68.9,0,0,1-33.79-10.84A69.72,69.72,0,0,1,165.65,249.05Z"/><path d="M220.51,55.65A163.87,163.87,0,0,0,56.63,219.52C56.63,310,220.51,456,220.51,456S384.39,310,384.39,219.52A163.87,163.87,0,0,0,220.51,55.65Zm0,238.07a78.83,78.83,0,1,1,78.83-78.83A78.84,78.84,0,0,1,220.51,293.72Z"/><text class="cls-2" transform="translate(390.71 214.89)">HAPPY<tspan x="0" y="90.75">CYCLE</tspan></text><text class="cls-3" transform="translate(483.25 341.12) scale(1.35 1)">Recycle en t’amusant</text></svg>