<svg id="Calque_7" data-name="Calque 7" xmlns="http://www.w3.org/2000/svg" viewBox="0 0 800 800"><defs><style>.cls-1{stroke:#000;stroke-miterlimit:10;}</style></defs><title>Plan de travail 3</title><g id="Calque_9" data-name="Calque 9"><path class="cls-1" d="M297.84,397.42h22.41c4.43,5,35.25,38.39,85.37,37.55,47.94-.8,77-32.33,81.64-37.55h21.48a131.76,131.76,0,0,1-111.68,54.94,128.06,128.06,0,0,1-62.93-20.17A130.06,130.06,0,0,1,297.84,397.42Z"/></g><path d="M400,37.26c-168.55,0-305.17,136.62-305.17,305.17S400,782.81,400,782.81,705.17,511,705.17,342.43,568.55,37.26,400,37.26Zm0,443.33A146.79,146.79,0,1,1,546.79,333.8,146.81,146.81,0,0,1,400,480.59Z"/></svg>