<svg id="Calque_10" data-name="Calque 10" xmlns="http://www.w3.org/2000/svg" viewBox="0 0 800 800"><title>Plan de travail 1</title><g id="Calque_9" data-name="Calque 9"><path d="M400,28.65C194.91,28.65,28.65,194.91,28.65,400S194.91,771.35,400,771.35,771.35,605.09,771.35,400,605.09,28.65,400,28.65ZM571.85,642c-85.07,54.54-169.28,52.21-187.25,51.38-70.26-3.25-123.94-29.59-155.73-49.91a321.81,321.81,0,0,1-89.78-86h55.46c10.95,12.28,87.21,95,211.23,92.92,118.61-2,190.48-80,202-92.92h53.14A328.49,328.49,0,0,1,571.85,642Z"/></g></svg>